<svg width="300" height="45" viewBox="0 0 300 45" fill="none" xmlns="http://www.w3.org/2000/svg">
<rect width="300" height="45" rx="10" fill="black"/>
<path d="M39.0373 23.0174C39.0068 21.1729 39.8037 19.7372 41.4254 18.7098C40.511 17.3802 39.1623 16.6329 37.3787 16.4659C36.7444 16.4062 35.9335 16.556 34.9468 16.9192C33.8851 17.3129 33.2876 17.5085 33.1556 17.5085C32.8755 17.5085 32.3377 17.3434 31.5402 17.01C30.7446 16.6773 30.0665 16.5116 29.5064 16.5116C28.5629 16.5268 27.6853 16.7878 26.8751 17.2939C26.0643 17.8006 25.416 18.492 24.9302 19.3677C24.3092 20.4554 24 21.7551 24 23.2663C24 24.6264 24.228 25.9859 24.6851 27.3473C25.1125 28.647 25.6585 29.7881 26.3214 30.7691C26.9107 31.6612 27.4282 32.3108 27.8695 32.7197C28.5038 33.354 29.1521 33.6569 29.8163 33.6258C30.2436 33.6106 30.803 33.4518 31.4964 33.1489C32.1447 32.8632 32.7936 32.7197 33.4426 32.7197C34.0464 32.7197 34.6725 32.8626 35.3221 33.1489C36.044 33.4518 36.6339 33.6029 37.0911 33.6029C37.7692 33.5731 38.4029 33.2785 38.9934 32.7203C39.1992 32.5381 39.4239 32.2892 39.6671 31.9717C39.9103 31.6536 40.1796 31.2758 40.4748 30.8383C40.6805 30.5215 40.8831 30.1811 41.0831 29.8179C41.2825 29.4554 41.4628 29.0706 41.6247 28.6616C41.6978 28.4953 41.7638 28.3257 41.8235 28.1518C41.8819 27.9784 41.9409 27.8013 42 27.6197C41.4546 27.3784 40.9606 27.0368 40.5186 26.5986C39.5471 25.6329 39.0531 24.4385 39.0379 23.0181L39.0373 23.0174Z" fill="white"/>
<path d="M36.2506 14.6276C37.0323 13.6453 37.4234 12.5874 37.4234 11.4534V11.2273C37.4234 11.1511 37.4158 11.0762 37.4012 11C36.8557 11.0305 36.2773 11.2045 35.6652 11.5213C35.0537 11.8394 34.5489 12.2401 34.1502 12.7233C33.3545 13.6757 32.9564 14.6955 32.9564 15.7838V15.9984C32.9564 16.067 32.964 16.1388 32.9786 16.215C34.2029 16.3356 35.2937 15.8067 36.2513 14.6282L36.2506 14.6276Z" fill="white"/>
<path d="M113.605 26.8125H112.32L115.943 16.9141H117.242L120.865 26.8125H119.566L118.582 24.0234H114.604L113.605 26.8125ZM114.973 22.9434H118.199L116.627 18.5137H116.545L114.973 22.9434ZM122.055 29.6016V19.3887H123.189V20.5645H123.326C123.572 20.168 124.037 19.293 125.473 19.293C127.332 19.293 128.631 20.7695 128.631 23.1211C128.631 25.4727 127.332 26.9629 125.486 26.9629C124.064 26.9629 123.572 26.0879 123.326 25.6777H123.23V29.6016H122.055ZM123.203 23.0938C123.203 24.7617 123.955 25.9102 125.322 25.9102C126.73 25.9102 127.455 24.6797 127.455 23.0938C127.455 21.5488 126.744 20.3457 125.322 20.3457C123.928 20.3457 123.203 21.4531 123.203 23.0938ZM130.162 29.6016V19.3887H131.297V20.5645H131.434C131.68 20.168 132.145 19.293 133.58 19.293C135.439 19.293 136.738 20.7695 136.738 23.1211C136.738 25.4727 135.439 26.9629 133.594 26.9629C132.172 26.9629 131.68 26.0879 131.434 25.6777H131.338V29.6016H130.162ZM131.311 23.0938C131.311 24.7617 132.062 25.9102 133.43 25.9102C134.838 25.9102 135.562 24.6797 135.562 23.0938C135.562 21.5488 134.852 20.3457 133.43 20.3457C132.035 20.3457 131.311 21.4531 131.311 23.0938ZM139.445 16.9141V26.8125H138.27V16.9141H139.445ZM144.436 26.9629C142.289 26.9629 140.963 25.4453 140.963 23.1621C140.963 20.8789 142.303 19.293 144.326 19.293C145.885 19.293 147.525 20.25 147.525 22.998V23.4902H142.139C142.193 25.0625 143.109 25.9238 144.436 25.9238C145.324 25.9238 145.885 25.541 146.158 25.0762H147.416C147.061 26.1973 145.967 26.9629 144.436 26.9629ZM142.152 22.4922H146.336C146.336 21.248 145.543 20.332 144.326 20.332C143.041 20.332 142.221 21.3438 142.152 22.4922ZM163.248 25.5137V26.416H152.119V25.5137H157.123V23.2168H153.514V19.4707H160.787V17.5566H153.486V16.668H161.84V20.3457H154.58V22.3281H162.127V23.2168H158.176V25.5137H163.248ZM173.803 17.0645V18.2812C173.803 19.8125 173.803 21.5488 173.352 24.1875L172.258 24.0781C172.75 21.5898 172.75 19.7715 172.75 18.2812V17.9531H165.422V17.0645H173.803ZM175.293 25.2402V26.1289H164.219V25.2402H175.293ZM186.354 15.7793V24.666H185.287V15.7793H186.354ZM186.736 26.7578V27.6602H178.506V23.7637H179.572V26.7578H186.736ZM179.791 16.627C181.609 16.627 182.977 17.8574 182.977 19.6074C182.977 21.3848 181.609 22.6016 179.791 22.6016C177.973 22.6016 176.605 21.3848 176.605 19.6074C176.605 17.8574 177.973 16.627 179.791 16.627ZM179.791 17.5703C178.561 17.5703 177.645 18.418 177.658 19.6074C177.645 20.8242 178.561 21.6582 179.791 21.6582C180.994 21.6582 181.924 20.8242 181.924 19.6074C181.924 18.418 180.994 17.5703 179.791 17.5703Z" fill="white"/>
</svg>
