<svg width="94" height="94" viewBox="0 0 94 94" fill="none" xmlns="http://www.w3.org/2000/svg">
<circle cx="47" cy="47" r="47" fill="#FF633E"/>
<path d="M58 61V58C58 56.4087 57.3819 54.8826 56.2817 53.7574C55.1815 52.6321 53.6893 52 52.1333 52H41.8667C40.3107 52 38.8185 52.6321 37.7183 53.7574C36.6181 54.8826 36 56.4087 36 58V61" stroke="white" stroke-width="2.5" stroke-linecap="round" stroke-linejoin="round"/>
<path d="M47 46C50.3137 46 53 43.3137 53 40C53 36.6863 50.3137 34 47 34C43.6863 34 41 36.6863 41 40C41 43.3137 43.6863 46 47 46Z" stroke="white" stroke-width="2.5" stroke-linecap="round" stroke-linejoin="round"/>
</svg>
