<svg width="375" height="813" viewBox="0 0 375 813" fill="none" xmlns="http://www.w3.org/2000/svg">
<rect width="375" height="812" transform="translate(0 0.820312)" fill="url(#paint0_linear_2369_13621)"/>
<path d="M155.5 315.633H143.533C125.299 315.633 110.5 330.133 110.5 348.04V382.633" stroke="white" stroke-width="15" stroke-miterlimit="10"/>
<path d="M194.5 297.633H182.799C164.97 297.633 150.5 312.133 150.5 330.04V364.633" stroke="white" stroke-width="15" stroke-miterlimit="10"/>
<path d="M155.5 315.633H143.533C125.299 315.633 110.5 330.133 110.5 348.04V382.633" stroke="white" stroke-width="15" stroke-miterlimit="10"/>
<path d="M194.5 297.633H182.799C164.97 297.633 150.5 312.133 150.5 330.04V364.633" stroke="white" stroke-width="15" stroke-miterlimit="10"/>
<path d="M224.5 323.633H212.799C194.97 323.633 180.5 338.133 180.5 356.04V390.633" stroke="white" stroke-width="15" stroke-miterlimit="10"/>
<path d="M264.5 305.633H252.533C234.299 305.633 219.5 320.349 219.5 338.524V373.633" stroke="white" stroke-width="15" stroke-miterlimit="10"/>
<path d="M224.5 323.633H212.799C194.97 323.633 180.5 338.133 180.5 356.04V390.633" stroke="white" stroke-width="15" stroke-miterlimit="10"/>
<path d="M264.5 305.633H252.533C234.299 305.633 219.5 320.349 219.5 338.524V373.633" stroke="white" stroke-width="15" stroke-miterlimit="10"/>
<path d="M113.359 435.297V437.074H110.742V446.098H108.574V428.48H110.742V435.297H113.359ZM99.6875 430.199V439.945C102.041 439.906 104.551 439.701 107.207 439.145L107.441 440.98C104.473 441.566 101.641 441.742 99.0234 441.742H97.5391V430.199H99.6875ZM123.164 430.004V438.344H114.805V430.004H123.164ZM116.934 431.742V436.625H121.035V431.742H116.934ZM128.125 428.48V433.656H130.586V435.473H128.125V441.371H125.957V428.48H128.125ZM128.828 444.027V445.785H116.816V440.121H118.984V444.027H128.828ZM137.207 429.711C140 429.691 142.051 431.469 142.07 433.969C142.051 436.488 140 438.246 137.207 438.246C134.434 438.246 132.363 436.488 132.363 433.969C132.363 431.469 134.434 429.691 137.207 429.711ZM137.207 431.586C135.664 431.586 134.512 432.504 134.512 433.969C134.512 435.453 135.664 436.352 137.207 436.352C138.77 436.352 139.941 435.453 139.941 433.969C139.941 432.504 138.77 431.586 137.207 431.586ZM146.191 428.48V446.156H144.023V428.48H146.191ZM131.562 440.688C134.746 440.688 139.16 440.648 142.969 440.102L143.145 441.684C139.18 442.445 134.941 442.465 131.836 442.465L131.562 440.688ZM160.996 430.395V434.984H163.047V428.793H165.117V445.277H163.047V436.742H160.996V441.586H154.062V430.395H160.996ZM156.094 432.113V439.867H158.965V432.113H156.094ZM168.75 428.48V446.137H166.66V428.48H168.75ZM185.488 428.48V446.156H183.301V428.48H185.488ZM175.977 429.77C178.633 429.77 180.566 432.191 180.586 436C180.566 439.848 178.633 442.25 175.977 442.25C173.301 442.25 171.367 439.848 171.367 436C171.367 432.191 173.301 429.77 175.977 429.77ZM175.977 431.723C174.473 431.723 173.457 433.305 173.457 436C173.457 438.715 174.473 440.297 175.977 440.297C177.461 440.297 178.477 438.715 178.477 436C178.477 433.305 177.461 431.723 175.977 431.723ZM202.402 430.121V432.23C202.402 434.789 202.402 437.23 201.621 440.961L199.453 440.766C199.814 439.223 200.02 437.865 200.137 436.605L189.727 437.152L189.434 435.395L200.234 434.984C200.273 434.037 200.273 433.129 200.273 432.23V431.879H189.961V430.121H202.402ZM204.18 442.113V443.891H188.086V442.113H204.18ZM210.273 429.262C212.559 429.242 214.355 430.561 214.805 432.504H217.988V428.48H220.156V437.953H217.988V434.262H214.824C214.385 436.244 212.568 437.582 210.273 437.582C207.559 437.582 205.605 435.844 205.605 433.402C205.605 431 207.559 429.242 210.273 429.262ZM210.273 431.078C208.75 431.078 207.676 431.977 207.676 433.402C207.676 434.809 208.75 435.746 210.273 435.746C211.758 435.746 212.812 434.809 212.832 433.402C212.812 431.977 211.758 431.078 210.273 431.078ZM210.664 438.773V440.648H217.988V438.773H220.156V445.922H208.516V438.773H210.664ZM210.664 444.164H217.988V442.328H210.664V444.164ZM234.883 430.395V434.984H236.934V428.793H239.004V445.277H236.934V436.742H234.883V441.586H227.949V430.395H234.883ZM229.98 432.113V439.867H232.852V432.113H229.98ZM242.637 428.48V446.137H240.547V428.48H242.637ZM259.375 428.48V446.156H257.188V428.48H259.375ZM249.863 429.77C252.52 429.77 254.453 432.191 254.473 436C254.453 439.848 252.52 442.25 249.863 442.25C247.188 442.25 245.254 439.848 245.254 436C245.254 432.191 247.188 429.77 249.863 429.77ZM249.863 431.723C248.359 431.723 247.344 433.305 247.344 436C247.344 438.715 248.359 440.297 249.863 440.297C251.348 440.297 252.363 438.715 252.363 436C252.363 433.305 251.348 431.723 249.863 431.723ZM276.328 437.738V439.457H263.945V429.867H276.172V431.625H266.152V433.754H275.762V435.453H266.152V437.738H276.328ZM278.105 442.211V443.988H261.973V442.211H278.105Z" fill="white"/>
<defs>
<linearGradient id="paint0_linear_2369_13621" x1="-1.39698e-06" y1="406" x2="405.39" y2="406" gradientUnits="userSpaceOnUse">
<stop offset="0.229167" stop-color="#FF633E"/>
<stop offset="1" stop-color="#FF985E"/>
</linearGradient>
</defs>
</svg>
