<svg width="300" height="45" viewBox="0 0 300 45" fill="none" xmlns="http://www.w3.org/2000/svg">
<rect width="300" height="45" rx="10" fill="#FEE500"/>
<path d="M34.001 15C28.4766 15 24 18.5764 24 22.9906C24 25.8623 25.8968 28.3818 28.7441 29.789C28.5354 30.5776 27.9862 32.6485 27.8768 33.0909C27.741 33.6399 28.0754 33.6337 28.2943 33.4862C28.4665 33.3695 31.0341 31.6038 32.1427 30.8439C32.7446 30.934 33.3647 30.9811 33.999 30.9811C39.5213 30.9811 44 27.4047 44 22.9906C44 18.5764 39.5234 15 34.001 15Z" fill="black"/>
<path d="M119.239 19.0137C119.226 22.5273 118.036 25.7402 113.661 27.8867L113.06 27.0664C115.35 25.959 116.724 24.5508 117.462 22.9102L113.292 23.3066L113.114 22.3633L117.79 22.0488C118.002 21.3652 118.125 20.6475 118.173 19.9023H113.729V19.0137H119.239ZM122.343 17.7422V22.6914H124.312V23.5938H122.343V29.8965H121.276V17.7422H122.343ZM131.339 19.0137C131.325 22.5273 130.136 25.7402 125.761 27.8867L125.159 27.0664C127.449 25.959 128.823 24.5508 129.562 22.9102L125.392 23.3066L125.214 22.3633L129.89 22.0488C130.102 21.3652 130.225 20.6475 130.272 19.9023H125.829V19.0137H131.339ZM134.442 17.7422V22.6914H136.411V23.5938H134.442V29.8965H133.376V17.7422H134.442ZM142.673 18.5352C145.257 18.5488 147.116 19.8066 147.116 21.7207C147.116 23.5322 145.503 24.7354 143.192 24.8789V27.4355H148.265V28.3379H137.136V27.4355H142.14V24.8789C139.836 24.7285 138.229 23.5254 138.229 21.7207C138.229 19.8066 140.089 18.5488 142.673 18.5352ZM142.673 19.4238C140.704 19.4238 139.269 20.3535 139.269 21.7207C139.269 23.1289 140.704 24.0312 142.673 24.0449C144.642 24.0312 146.077 23.1289 146.077 21.7207C146.077 20.3535 144.642 19.4238 142.673 19.4238ZM163.878 27.4902V28.3926H152.749V27.4902H157.753V25.1934H154.144V21.4473H161.417V19.5332H154.116V18.6445H162.47V22.3223H155.21V24.3047H162.757V25.1934H158.806V27.4902H163.878ZM174.433 19.041V20.2578C174.433 21.7891 174.433 23.5254 173.981 26.1641L172.888 26.0547C173.38 23.5664 173.38 21.748 173.38 20.2578V19.9297H166.052V19.041H174.433ZM175.923 27.2168V28.1055H164.849V27.2168H175.923ZM186.983 17.7559V26.6426H185.917V17.7559H186.983ZM187.366 28.7344V29.6367H179.136V25.7402H180.202V28.7344H187.366ZM180.421 18.6035C182.239 18.6035 183.606 19.834 183.606 21.584C183.606 23.3613 182.239 24.5781 180.421 24.5781C178.603 24.5781 177.235 23.3613 177.235 21.584C177.235 19.834 178.603 18.6035 180.421 18.6035ZM180.421 19.5469C179.19 19.5469 178.274 20.3945 178.288 21.584C178.274 22.8008 179.19 23.6348 180.421 23.6348C181.624 23.6348 182.554 22.8008 182.554 21.584C182.554 20.3945 181.624 19.5469 180.421 19.5469Z" fill="black"/>
</svg>
