<svg width="300" height="46" viewBox="0 0 300 46" fill="none" xmlns="http://www.w3.org/2000/svg">
<rect y="0.716797" width="300" height="45" rx="10" fill="url(#paint0_linear_5014_19469)"/>
<path d="M115.908 16.6699V28.8516H114.828V16.6699H115.908ZM109.441 17.6133C111.246 17.627 112.545 19.2676 112.545 21.8516C112.545 24.4355 111.246 26.0762 109.441 26.0762C107.623 26.0762 106.338 24.4355 106.338 21.8516C106.338 19.2676 107.623 17.627 109.441 17.6133ZM109.441 18.5703C108.225 18.584 107.377 19.8691 107.377 21.8516C107.377 23.834 108.225 25.1191 109.441 25.1191C110.658 25.1191 111.506 23.834 111.506 21.8516C111.506 19.8691 110.658 18.584 109.441 18.5703ZM123.086 18.0918V21.2637H124.932V16.9297H125.957V28.209H124.932V22.1523H123.086V25.5566H118.438V18.0918H123.086ZM119.449 18.9531V24.6953H122.074V18.9531H119.449ZM128.404 16.6699V28.8242H127.365V16.6699H128.404ZM133.531 17.1211C135.35 17.1348 136.676 18.2285 136.676 19.8145C136.676 21.4004 135.35 22.4941 133.531 22.4941C131.686 22.4941 130.373 21.4004 130.373 19.8145C130.373 18.2285 131.686 17.1348 133.531 17.1211ZM133.531 18.0234C132.314 18.0234 131.412 18.7617 131.426 19.8145C131.412 20.8809 132.314 21.6191 133.531 21.6191C134.734 21.6191 135.637 20.8809 135.637 19.8145C135.637 18.7617 134.734 18.0234 133.531 18.0234ZM140.121 16.6699V22.918H139.055V16.6699H140.121ZM140.121 23.5059V26.4316H133.299V27.7988H140.559V28.6602H132.246V25.625H139.055V24.3672H132.219V23.5059H140.121ZM153.314 26.418V27.3203H142.186V26.418H147.189V24.1211H143.58V20.375H150.854V18.4609H143.553V17.5723H151.906V21.25H144.646V23.2324H152.193V24.1211H148.242V26.418H153.314ZM168.928 26.418V27.3203H157.799V26.418H162.803V24.1211H159.193V20.375H166.467V18.4609H159.166V17.5723H167.52V21.25H160.26V23.2324H167.807V24.1211H163.855V26.418H168.928ZM179.482 17.9688V19.1855C179.482 20.7168 179.482 22.4531 179.031 25.0918L177.938 24.9824C178.43 22.4941 178.43 20.6758 178.43 19.1855V18.8574H171.102V17.9688H179.482ZM180.973 26.1445V27.0332H169.898V26.1445H180.973ZM192.033 16.6836V25.5703H190.967V16.6836H192.033ZM192.416 27.6621V28.5645H184.186V24.668H185.252V27.6621H192.416ZM185.471 17.5312C187.289 17.5312 188.656 18.7617 188.656 20.5117C188.656 22.2891 187.289 23.5059 185.471 23.5059C183.652 23.5059 182.285 22.2891 182.285 20.5117C182.285 18.7617 183.652 17.5312 185.471 17.5312ZM185.471 18.4746C184.24 18.4746 183.324 19.3223 183.338 20.5117C183.324 21.7285 184.24 22.5625 185.471 22.5625C186.674 22.5625 187.604 21.7285 187.604 20.5117C187.604 19.3223 186.674 18.4746 185.471 18.4746Z" fill="white"/>
<path d="M27 15.7168H43C44.1 15.7168 45 16.6168 45 17.7168V29.7168C45 30.8168 44.1 31.7168 43 31.7168H27C25.9 31.7168 25 30.8168 25 29.7168V17.7168C25 16.6168 25.9 15.7168 27 15.7168Z" stroke="white" stroke-width="2" stroke-linecap="round" stroke-linejoin="round"/>
<path d="M45 17.7168L35 24.7168L25 17.7168" stroke="white" stroke-width="2" stroke-linecap="round" stroke-linejoin="round"/>
<defs>
<linearGradient id="paint0_linear_5014_19469" x1="-1.11759e-06" y1="23.2168" x2="324.312" y2="23.2168" gradientUnits="userSpaceOnUse">
<stop offset="0.229167" stop-color="#FF633E"/>
<stop offset="1" stop-color="#FF985E"/>
</linearGradient>
</defs>
</svg>
