<svg width="28" height="28" viewBox="0 0 28 28" fill="none" xmlns="http://www.w3.org/2000/svg">
<rect width="28" height="28" fill="#343434"/>
<path d="M-3337 -8556C-3337 -8557.1 -3336.1 -8558 -3335 -8558H9931C9932.1 -8558 9933 -8557.1 9933 -8556V4110C9933 4111.1 9932.1 4112 9931 4112H-3335C-3336.1 4112 -3337 4111.1 -3337 4110V-8556Z" fill="#252525"/>
<path d="M-3335 -8557H9931V-8559H-3335V-8557ZM9932 -8556V4110H9934V-8556H9932ZM9931 4111H-3335V4113H9931V4111ZM-3336 4110V-8556H-3338V4110H-3336ZM-3335 4111C-3335.55 4111 -3336 4110.55 -3336 4110H-3338C-3338 4111.66 -3336.66 4113 -3335 4113V4111ZM9932 4110C9932 4110.55 9931.55 4111 9931 4111V4113C9932.66 4113 9934 4111.66 9934 4110H9932ZM9931 -8557C9931.55 -8557 9932 -8556.55 9932 -8556H9934C9934 -8557.66 9932.66 -8559 9931 -8559V-8557ZM-3335 -8559C-3336.66 -8559 -3338 -8557.66 -3338 -8556H-3336C-3336 -8556.55 -3335.55 -8557 -3335 -8557V-8559Z" fill="white" fill-opacity="0.1"/>
<g clip-path="url(#clip0_1_1097)">
<rect width="375" height="1072" transform="translate(0 -115)" fill="white"/>
<circle cx="14" cy="14" r="14" fill="#222222"/>
<g clip-path="url(#clip1_1_1097)">
<path d="M17.333 7.9976C17.5081 7.8225 17.716 7.68361 17.9447 7.58885C18.1735 7.49409 18.4187 7.44531 18.6663 7.44531C18.914 7.44531 19.1592 7.49409 19.3879 7.58885C19.6167 7.68361 19.8246 7.8225 19.9997 7.9976C20.1748 8.17269 20.3137 8.38056 20.4084 8.60934C20.5032 8.83811 20.552 9.08331 20.552 9.33093C20.552 9.57855 20.5032 9.82375 20.4084 10.0525C20.3137 10.2813 20.1748 10.4892 19.9997 10.6643L10.9997 19.6643L7.33301 20.6643L8.33301 16.9976L17.333 7.9976Z" stroke="white" stroke-width="1.5" stroke-linecap="round" stroke-linejoin="round"/>
</g>
</g>
<defs>
<clipPath id="clip0_1_1097">
<rect width="375" height="1072" fill="white" transform="translate(0 -115)"/>
</clipPath>
<clipPath id="clip1_1_1097">
<rect width="16" height="16" fill="white" transform="translate(6 6)"/>
</clipPath>
</defs>
</svg>
