<svg width="37" height="37" viewBox="0 0 37 37" fill="none" xmlns="http://www.w3.org/2000/svg">
<rect width="37" height="37" fill="#343434"/>
<g id="&#236;&#153;&#128;&#236;&#157;&#180;&#236;&#150;&#180;&#237;&#148;&#132;&#235;&#160;&#136;&#236;&#158;&#132; &#236;&#136;&#152;&#236;&#160;&#149; &#236;&#153;&#132;&#235;&#163;&#140; (&#235;&#170;&#168;&#235;&#141;&#184;)">
<path d="M-7014 -8694C-7014 -8695.1 -7013.1 -8696 -7012 -8696H6254C6255.1 -8696 6256 -8695.1 6256 -8694V3972C6256 3973.1 6255.1 3974 6254 3974H-7012C-7013.1 3974 -7014 3973.1 -7014 3972V-8694Z" fill="#252525"/>
<path d="M-7012 -8695H6254V-8697H-7012V-8695ZM6255 -8694V3972H6257V-8694H6255ZM6254 3973H-7012V3975H6254V3973ZM-7013 3972V-8694H-7015V3972H-7013ZM-7012 3973C-7012.55 3973 -7013 3972.55 -7013 3972H-7015C-7015 3973.66 -7013.66 3975 -7012 3975V3973ZM6255 3972C6255 3972.55 6254.55 3973 6254 3973V3975C6255.66 3975 6257 3973.66 6257 3972H6255ZM6254 -8695C6254.55 -8695 6255 -8694.55 6255 -8694H6257C6257 -8695.66 6255.66 -8697 6254 -8697V-8695ZM-7012 -8697C-7013.66 -8697 -7015 -8695.66 -7015 -8694H-7013C-7013 -8694.55 -7012.55 -8695 -7012 -8695V-8697Z" fill="white" fill-opacity="0.1"/>
<g id="&#235;&#167;&#136;&#236;&#157;&#180;&#237;&#142;&#152;&#236;&#157;&#180;&#236;&#167;&#128; - &#235;&#166;&#172;&#235;&#183;&#176; &#236;&#136;&#152;&#236;&#160;&#149;" clip-path="url(#clip0_1_1097)">
<rect width="375" height="812" transform="translate(-168 -253)" fill="white"/>
<g id="star">
<path id="Vector" d="M18.5002 3.08594L23.2639 12.7368L33.9168 14.2939L26.2085 21.8018L28.0277 32.4084L18.5002 27.398L8.97266 32.4084L10.7918 21.8018L3.0835 14.2939L13.7364 12.7368L18.5002 3.08594Z" fill="#FF633E"/>
</g>
</g>
</g>
<defs>
<clipPath id="clip0_1_1097">
<rect width="375" height="812" fill="white" transform="translate(-168 -253)"/>
</clipPath>
</defs>
</svg>
