<svg width="23" height="20" viewBox="0 0 23 20" fill="none" xmlns="http://www.w3.org/2000/svg">
<path id="Vector" d="M20.2913 2.59184C19.7805 2.11195 19.1741 1.73126 18.5066 1.47154C17.8392 1.21181 17.1238 1.07812 16.4013 1.07812C15.6788 1.07812 14.9634 1.21181 14.2959 1.47154C13.6285 1.73126 13.022 2.11195 12.5113 2.59184L11.4513 3.58732L10.3913 2.59184C9.3596 1.62295 7.96032 1.07863 6.50129 1.07863C5.04226 1.07863 3.64298 1.62295 2.61129 2.59184C1.5796 3.56073 1 4.87483 1 6.24506C1 7.61528 1.5796 8.92938 2.61129 9.89827L3.67129 10.8938L11.4513 18.2002L19.2313 10.8938L20.2913 9.89827C20.8023 9.41861 21.2076 8.84909 21.4842 8.22226C21.7608 7.59543 21.9031 6.92357 21.9031 6.24506C21.9031 5.56655 21.7608 4.89468 21.4842 4.26785C21.2076 3.64102 20.8023 3.07151 20.2913 2.59184Z" fill="black" stroke="black" stroke-width="2" stroke-linecap="round" stroke-linejoin="round"/>
</svg>
