<svg width="15" height="21" viewBox="0 0 15 21" fill="none" xmlns="http://www.w3.org/2000/svg">
<g id="align-justify">
<path id="Vector" d="M13.125 9.69531H1.875" stroke="#222222" stroke-width="1.5" stroke-linecap="round" stroke-linejoin="round"/>
<path id="Vector_2" d="M13.125 4.84375H1.875" stroke="#222222" stroke-width="1.5" stroke-linecap="round" stroke-linejoin="round"/>
<path id="Vector_3" d="M13.125 14.5391H1.875" stroke="#222222" stroke-width="1.5" stroke-linecap="round" stroke-linejoin="round"/>
<path id="Ellipse 177" d="M5.8161 4.84976C5.8161 5.47658 5.32234 5.96514 4.73715 5.96514C4.15196 5.96514 3.6582 5.47658 3.6582 4.84976C3.6582 4.22293 4.15196 3.73438 4.73715 3.73438C5.32234 3.73438 5.8161 4.22293 5.8161 4.84976Z" fill="white" stroke="#222222"/>
<path id="Ellipse 178" d="M8.18426 9.69351C8.18426 10.3203 7.69051 10.8089 7.10531 10.8089C6.52012 10.8089 6.02637 10.3203 6.02637 9.69351C6.02637 9.06668 6.52012 8.57812 7.10531 8.57812C7.69051 8.57812 8.18426 9.06668 8.18426 9.69351Z" fill="white" stroke="#222222"/>
<path id="Ellipse 179" d="M11.3425 14.5373C11.3425 15.1641 10.8487 15.6526 10.2635 15.6526C9.67832 15.6526 9.18457 15.1641 9.18457 14.5373C9.18457 13.9104 9.67832 13.4219 10.2635 13.4219C10.8487 13.4219 11.3425 13.9104 11.3425 14.5373Z" fill="white" stroke="#222222"/>
</g>
</svg>
