<svg width="23" height="20" viewBox="0 0 23 20" fill="none" xmlns="http://www.w3.org/2000/svg">
<path d="M20.2913 2.51371C19.7805 2.03382 19.1741 1.65314 18.5066 1.39341C17.8392 1.13368 17.1238 1 16.4013 1C15.6788 1 14.9634 1.13368 14.2959 1.39341C13.6285 1.65314 13.022 2.03382 12.5113 2.51371L11.4513 3.50919L10.3913 2.51371C9.3596 1.54482 7.96032 1.0005 6.50129 1.0005C5.04226 1.0005 3.64298 1.54482 2.61129 2.51371C1.5796 3.48261 1 4.79671 1 6.16693C1 7.53715 1.5796 8.85126 2.61129 9.82015L3.67129 10.8156L11.4513 18.1221L19.2313 10.8156L20.2913 9.82015C20.8023 9.34048 21.2076 8.77097 21.4842 8.14413C21.7608 7.5173 21.9031 6.84544 21.9031 6.16693C21.9031 5.48842 21.7608 4.81656 21.4842 4.18973C21.2076 3.5629 20.8023 2.99338 20.2913 2.51371Z" fill="#222222" stroke="#222222" stroke-width="2" stroke-linecap="round" stroke-linejoin="round"/>
</svg>
