<svg width="21" height="21" viewBox="0 0 21 21" fill="none" xmlns="http://www.w3.org/2000/svg">
<path d="M10.4999 10.5C11.0098 10.5 11.4465 10.304 11.8099 9.912C12.1727 9.52067 12.3541 9.05 12.3541 8.5C12.3541 7.95 12.1727 7.479 11.8099 7.087C11.4465 6.69567 11.0098 6.5 10.4999 6.5C9.98996 6.5 9.55361 6.69567 9.1908 7.087C8.82737 7.479 8.64566 7.95 8.64566 8.5C8.64566 9.05 8.82737 9.52067 9.1908 9.912C9.55361 10.304 9.98996 10.5 10.4999 10.5ZM10.4999 20.5C8.01213 18.2167 6.15421 16.0957 4.9261 14.137C3.69737 12.179 3.08301 10.3667 3.08301 8.7C3.08301 6.2 3.82871 4.20833 5.32012 2.725C6.81091 1.24167 8.5375 0.5 10.4999 0.5C12.4623 0.5 14.1888 1.24167 15.6796 2.725C17.171 4.20833 17.9167 6.2 17.9167 8.7C17.9167 10.3667 17.3027 12.179 16.0746 14.137C14.8458 16.0957 12.9876 18.2167 10.4999 20.5Z" fill="#FF633E"/>
</svg>
