<svg width="24" height="20" viewBox="0 0 24 20" fill="none" xmlns="http://www.w3.org/2000/svg">
<path id="Vector" d="M20.8401 2.51371C20.3294 2.03382 19.7229 1.65314 19.0555 1.39341C18.388 1.13368 17.6726 1 16.9501 1C16.2276 1 15.5122 1.13368 14.8448 1.39341C14.1773 1.65314 13.5709 2.03382 13.0601 2.51371L12.0001 3.50919L10.9401 2.51371C9.90843 1.54482 8.50915 1.0005 7.05012 1.0005C5.59109 1.0005 4.19181 1.54482 3.16012 2.51371C2.12843 3.48261 1.54883 4.79671 1.54883 6.16693C1.54883 7.53715 2.12843 8.85126 3.16012 9.82015L4.22012 10.8156L12.0001 18.1221L19.7801 10.8156L20.8401 9.82015C21.3511 9.34048 21.7565 8.77097 22.033 8.14413C22.3096 7.5173 22.4519 6.84544 22.4519 6.16693C22.4519 5.48842 22.3096 4.81656 22.033 4.18973C21.7565 3.5629 21.3511 2.99338 20.8401 2.51371Z" stroke="#FF633E" stroke-width="2" stroke-linecap="round" stroke-linejoin="round"/>
</svg>
