<svg width="16" height="20" viewBox="0 0 16 20" fill="none" xmlns="http://www.w3.org/2000/svg">
<path id="Vector" d="M7.99987 10C8.50978 10 8.94645 9.804 9.30988 9.412C9.67269 9.02067 9.85409 8.55 9.85409 8C9.85409 7.45 9.67269 6.979 9.30988 6.587C8.94645 6.19567 8.50978 6 7.99987 6C7.48996 6 7.05361 6.19567 6.6908 6.587C6.32737 6.979 6.14566 7.45 6.14566 8C6.14566 8.55 6.32737 9.02067 6.6908 9.412C7.05361 9.804 7.48996 10 7.99987 10ZM7.99987 20C5.51213 17.7167 3.65421 15.5957 2.4261 13.637C1.19737 11.679 0.583008 9.86667 0.583008 8.2C0.583008 5.7 1.32871 3.70833 2.82012 2.225C4.31091 0.741667 6.0375 0 7.99987 0C9.96225 0 11.6888 0.741667 13.1796 2.225C14.671 3.70833 15.4167 5.7 15.4167 8.2C15.4167 9.86667 14.8027 11.679 13.5746 13.637C12.3458 15.5957 10.4876 17.7167 7.99987 20Z" fill="#FF633E"/>
</svg>
